<svg width="34" height="35" viewBox="0 0 34 35" fill="none" xmlns="http://www.w3.org/2000/svg">
<path d="M28.7503 5.74365C27.2223 4.2002 25.4023 2.97643 23.3964 2.14374C21.3905 1.31104 19.2389 0.886088 17.067 0.893654C7.96699 0.893654 0.550326 8.31032 0.550326 17.4103C0.550326 20.327 1.31699 23.1603 2.75033 25.6603L0.416992 34.227L9.16699 31.927C11.5837 33.2437 14.3003 33.9437 17.067 33.9437C26.167 33.9437 33.5837 26.527 33.5837 17.427C33.5837 13.0103 31.867 8.86032 28.7503 5.74365ZM17.067 31.1437C14.6003 31.1437 12.1837 30.477 10.067 29.227L9.56699 28.927L4.36699 30.2937L5.75033 25.227L5.41699 24.7103C4.04657 22.5219 3.31889 19.9924 3.31699 17.4103C3.31699 9.84365 9.48366 3.67699 17.0503 3.67699C20.717 3.67699 24.167 5.11032 26.7503 7.71032C28.0295 8.98359 29.0432 10.4981 29.7326 12.166C30.4221 13.834 30.7737 15.6222 30.767 17.427C30.8003 24.9937 24.6337 31.1437 17.067 31.1437ZM24.6003 20.877C24.1837 20.677 22.1503 19.677 21.7837 19.527C21.4003 19.3937 21.1337 19.327 20.8503 19.727C20.567 20.1437 19.7837 21.077 19.5503 21.3437C19.317 21.627 19.067 21.6603 18.6503 21.4437C18.2337 21.2437 16.9003 20.7937 15.3337 19.3937C14.1003 18.2937 13.2837 16.9437 13.0337 16.527C12.8003 16.1103 13.0003 15.8937 13.217 15.677C13.4003 15.4937 13.6337 15.1937 13.8337 14.9603C14.0337 14.727 14.117 14.5437 14.2503 14.277C14.3837 13.9937 14.317 13.7603 14.217 13.5603C14.117 13.3603 13.2837 11.327 12.9503 10.4937C12.617 9.69365 12.267 9.79365 12.017 9.77699H11.217C10.9337 9.77699 10.5003 9.87699 10.117 10.2937C9.75033 10.7103 8.68366 11.7103 8.68366 13.7437C8.68366 15.777 10.167 17.7437 10.367 18.0103C10.567 18.2937 13.2837 22.4603 17.417 24.2437C18.4003 24.677 19.167 24.927 19.767 25.1103C20.7503 25.427 21.6503 25.377 22.367 25.277C23.167 25.1603 24.817 24.277 25.1503 23.3103C25.5003 22.3437 25.5003 21.527 25.3837 21.3437C25.267 21.1603 25.017 21.077 24.6003 20.877Z" fill="white"/>
</svg>
