<svg width="322" height="292" viewBox="0 0 322 292" fill="none" xmlns="http://www.w3.org/2000/svg">
<path d="M292.25 0.166992H29.7497C22.0213 0.190074 14.616 3.27039 9.15122 8.73521C3.68641 14.2 0.606089 21.6053 0.583008 29.3337L0.64134 204.392C0.656756 212.107 3.72847 219.502 9.184 224.958C14.6395 230.413 22.0344 233.485 29.7497 233.5H131.833V262.667L102.725 262.725L102.666 291.834H219.333L219.391 262.725L190.166 262.667V233.5H292.25C299.978 233.477 307.383 230.397 312.848 224.932C318.313 219.467 321.393 212.062 321.416 204.334V29.3337C321.393 21.6053 318.313 14.2 312.848 8.73521C307.383 3.27039 299.978 0.190074 292.25 0.166992ZM292.25 204.334H29.7497V29.3337H292.25V204.334Z" fill="black"/>
</svg>
